<svg xmlns="http://www.w3.org/2000/svg" width="896" height="576" viewBox="0 0 896 576">
<rect width="896" height="576" fill="black" />
<line x1="0" y1="449.28000000000003" x2="896" y2="449.28000000000003" stroke="#222" stroke-width="1" />
<rect x="133.5" y="411.6" width="7.3" height="54.1" rx="1.1" fill="white" opacity="0.2" />
<circle cx="137.1" cy="410.5" r="3.6" fill="white" opacity="0.2" />
<rect x="139.7" y="410.3" width="7.3" height="54.1" rx="1.1" fill="white" opacity="0.2" />
<circle cx="143.4" cy="409.2" r="3.6" fill="white" opacity="0.2" />
<rect x="146" y="411.6" width="7.3" height="54.1" rx="1.1" fill="white" opacity="0.2" />
<circle cx="149.6" cy="410.5" r="3.6" fill="white" opacity="0.2" />
<rect x="-3.2" y="429.7" width="6.4" height="39.2" rx="1" fill="white" opacity="0.3" />
<circle cx="0" cy="428.9" r="2.8" fill="white" opacity="0.3" />
<rect x="32.6" y="429.7" width="6.4" height="39.2" rx="1" fill="white" opacity="0.3" />
<circle cx="35.8" cy="428.9" r="2.8" fill="white" opacity="0.3" />
<rect x="265.6" y="429.7" width="6.4" height="39.2" rx="1" fill="white" opacity="0.3" />
<circle cx="268.8" cy="428.9" r="2.8" fill="white" opacity="0.3" />
<rect x="59.5" y="429.7" width="6.4" height="39.2" rx="1" fill="white" opacity="0.3" />
<circle cx="62.7" cy="428.9" r="2.8" fill="white" opacity="0.3" />
<rect x="-3.2" y="429.7" width="6.4" height="39.2" rx="1" fill="white" opacity="0.3" />
<circle cx="0" cy="428.9" r="2.8" fill="white" opacity="0.3" />
</svg>