<svg xmlns="http://www.w3.org/2000/svg" width="896" height="576" viewBox="0 0 896 576">
<rect width="896" height="576" fill="black" />
<line x1="0" y1="449.28000000000003" x2="896" y2="449.28000000000003" stroke="#222" stroke-width="1" />
<rect x="1" y="383" width="16" height="97.9" rx="2.4" fill="white" opacity="0.3" />
<circle cx="9" cy="380.9" r="7" fill="white" opacity="0.3" />
<rect x="459.9" y="402.5" width="12" height="73.4" rx="1.8" fill="white" opacity="0.3" />
<circle cx="465.9" cy="400.9" r="5.3" fill="white" opacity="0.3" />
<rect x="459.9" y="402.5" width="12" height="73.4" rx="1.8" fill="white" opacity="0.3" />
<circle cx="465.9" cy="400.9" r="5.3" fill="white" opacity="0.3" />
<rect x="451.8" y="410.3" width="10.4" height="63.6" rx="1.6" fill="white" opacity="0.3" />
<circle cx="457" cy="408.9" r="4.6" fill="white" opacity="0.3" />
<rect x="452.2" y="414.1" width="9.6" height="58.8" rx="1.4" fill="white" opacity="0.3" />
<circle cx="457" cy="412.9" r="4.2" fill="white" opacity="0.3" />
<rect x="452.2" y="414.1" width="9.6" height="58.8" rx="1.4" fill="white" opacity="0.3" />
<circle cx="457" cy="412.9" r="4.2" fill="white" opacity="0.3" />
<rect x="452.2" y="414.1" width="9.6" height="58.8" rx="1.4" fill="white" opacity="0.3" />
<circle cx="457" cy="412.9" r="4.2" fill="white" opacity="0.3" />
<rect x="452.2" y="414.1" width="9.6" height="58.8" rx="1.4" fill="white" opacity="0.3" />
<circle cx="457" cy="412.9" r="4.2" fill="white" opacity="0.3" />
<rect x="447.8" y="415.4" width="6.7" height="49.9" rx="1" fill="white" opacity="0.2" />
<circle cx="451.2" cy="414.4" r="3.4" fill="white" opacity="0.2" />
<rect x="453.6" y="414.1" width="6.7" height="49.9" rx="1" fill="white" opacity="0.2" />
<circle cx="457" cy="413.1" r="3.4" fill="white" opacity="0.2" />
<rect x="459.4" y="415.4" width="6.7" height="49.9" rx="1" fill="white" opacity="0.2" />
<circle cx="462.7" cy="414.4" r="3.4" fill="white" opacity="0.2" />
<rect x="447.8" y="415.4" width="6.7" height="49.9" rx="1" fill="white" opacity="0.2" />
<circle cx="451.2" cy="414.4" r="3.4" fill="white" opacity="0.2" />
<rect x="453.6" y="414.1" width="6.7" height="49.9" rx="1" fill="white" opacity="0.2" />
<circle cx="457" cy="413.1" r="3.4" fill="white" opacity="0.2" />
<rect x="459.4" y="415.4" width="6.7" height="49.9" rx="1" fill="white" opacity="0.2" />
<circle cx="462.7" cy="414.4" r="3.4" fill="white" opacity="0.2" />
<rect x="452.2" y="414.1" width="9.6" height="58.8" rx="1.4" fill="white" opacity="0.3" />
<circle cx="457" cy="412.9" r="4.2" fill="white" opacity="0.3" />
<rect x="452.2" y="414.1" width="9.6" height="58.8" rx="1.4" fill="white" opacity="0.3" />
<circle cx="457" cy="412.9" r="4.2" fill="white" opacity="0.3" />
</svg>