<svg xmlns="http://www.w3.org/2000/svg" width="896" height="576" viewBox="0 0 896 576">
<rect width="896" height="576" fill="black" />
<line x1="0" y1="449.28000000000003" x2="896" y2="449.28000000000003" stroke="#222" stroke-width="1" />
<rect x="654" y="237.6" width="33" height="245.5" rx="5" fill="white" opacity="0.7" />
<circle cx="670.6" cy="232.6" r="16.5" fill="white" opacity="0.7" />
<rect x="682.4" y="231.4" width="33" height="245.5" rx="5" fill="white" opacity="0.7" />
<circle cx="698.9" cy="226.5" r="16.5" fill="white" opacity="0.7" />
<rect x="710.7" y="237.6" width="33" height="245.5" rx="5" fill="white" opacity="0.7" />
<circle cx="727.2" cy="232.6" r="16.5" fill="white" opacity="0.7" />
<rect x="477" y="394.7" width="13.6" height="83.2" rx="2" fill="white" opacity="0.3" />
<circle cx="483.8" cy="392.9" r="6" fill="white" opacity="0.3" />
<rect x="56.3" y="398.6" width="12.8" height="78.3" rx="1.9" fill="white" opacity="0.3" />
<circle cx="62.7" cy="396.9" r="5.6" fill="white" opacity="0.3" />
<rect x="110.9" y="406.4" width="11.2" height="68.5" rx="1.7" fill="white" opacity="0.3" />
<circle cx="116.5" cy="404.9" r="4.9" fill="white" opacity="0.3" />
<rect x="-5.2" y="410.3" width="10.4" height="63.6" rx="1.6" fill="white" opacity="0.3" />
<circle cx="0" cy="408.9" r="4.6" fill="white" opacity="0.3" />
</svg>