<svg xmlns="http://www.w3.org/2000/svg" width="896" height="576" viewBox="0 0 896 576">
<rect width="896" height="576" fill="black" />
<line x1="0" y1="449.28000000000003" x2="896" y2="449.28000000000003" stroke="#222" stroke-width="1" />
<rect x="707.7" y="415.4" width="6.7" height="49.9" rx="1" fill="white" opacity="0.2" />
<circle cx="711" cy="414.4" r="3.4" fill="white" opacity="0.2" />
<rect x="713.4" y="414.1" width="6.7" height="49.9" rx="1" fill="white" opacity="0.2" />
<circle cx="716.8" cy="413.1" r="3.4" fill="white" opacity="0.2" />
<rect x="719.2" y="415.4" width="6.7" height="49.9" rx="1" fill="white" opacity="0.2" />
<circle cx="722.6" cy="414.4" r="3.4" fill="white" opacity="0.2" />
<rect x="121.8" y="425.8" width="7.2" height="44.1" rx="1.1" fill="white" opacity="0.3" />
<circle cx="125.4" cy="424.9" r="3.2" fill="white" opacity="0.3" />
<rect x="399.6" y="425.8" width="7.2" height="44.1" rx="1.1" fill="white" opacity="0.3" />
<circle cx="403.2" cy="424.9" r="3.2" fill="white" opacity="0.3" />
<rect x="306.8" y="426.8" width="5" height="37.5" rx="0.8" fill="white" opacity="0.2" />
<circle cx="309.3" cy="426" r="2.5" fill="white" opacity="0.2" />
<rect x="311.1" y="425.8" width="5" height="37.5" rx="0.8" fill="white" opacity="0.2" />
<circle cx="313.6" cy="425.1" r="2.5" fill="white" opacity="0.2" />
<rect x="315.4" y="426.8" width="5" height="37.5" rx="0.8" fill="white" opacity="0.2" />
<circle cx="317.9" cy="426" r="2.5" fill="white" opacity="0.2" />
<rect x="226.1" y="426.8" width="5" height="37.5" rx="0.8" fill="white" opacity="0.2" />
<circle cx="228.6" cy="426" r="2.5" fill="white" opacity="0.2" />
<rect x="230.4" y="425.8" width="5" height="37.5" rx="0.8" fill="white" opacity="0.2" />
<circle cx="233" cy="425.1" r="2.5" fill="white" opacity="0.2" />
<rect x="234.8" y="426.8" width="5" height="37.5" rx="0.8" fill="white" opacity="0.2" />
<circle cx="237.3" cy="426" r="2.5" fill="white" opacity="0.2" />
<rect x="148.7" y="425.8" width="7.2" height="44.1" rx="1.1" fill="white" opacity="0.3" />
<circle cx="152.3" cy="424.9" r="3.2" fill="white" opacity="0.3" />
<rect x="400" y="429.7" width="6.4" height="39.2" rx="1" fill="white" opacity="0.3" />
<circle cx="403.2" cy="428.9" r="2.8" fill="white" opacity="0.3" />
<rect x="319.4" y="429.7" width="6.4" height="39.2" rx="1" fill="white" opacity="0.3" />
<circle cx="322.6" cy="428.9" r="2.8" fill="white" opacity="0.3" />
<rect x="247.7" y="429.7" width="6.4" height="39.2" rx="1" fill="white" opacity="0.3" />
<circle cx="250.9" cy="428.9" r="2.8" fill="white" opacity="0.3" />
<rect x="167" y="429.7" width="6.4" height="39.2" rx="1" fill="white" opacity="0.3" />
<circle cx="170.2" cy="428.9" r="2.8" fill="white" opacity="0.3" />
<rect x="400" y="429.7" width="6.4" height="39.2" rx="1" fill="white" opacity="0.3" />
<circle cx="403.2" cy="428.9" r="2.8" fill="white" opacity="0.3" />
<rect x="328.3" y="429.7" width="6.4" height="39.2" rx="1" fill="white" opacity="0.3" />
<circle cx="331.5" cy="428.9" r="2.8" fill="white" opacity="0.3" />
<rect x="185" y="429.7" width="6.4" height="39.2" rx="1" fill="white" opacity="0.3" />
<circle cx="188.2" cy="428.9" r="2.8" fill="white" opacity="0.3" />
<rect x="597.1" y="429.7" width="6.4" height="39.2" rx="1" fill="white" opacity="0.3" />
<circle cx="600.3" cy="428.9" r="2.8" fill="white" opacity="0.3" />
</svg>