<svg xmlns="http://www.w3.org/2000/svg" width="896" height="576" viewBox="0 0 896 576">
<rect width="896" height="576" fill="black" />
<line x1="0" y1="449.28000000000003" x2="896" y2="449.28000000000003" stroke="#222" stroke-width="1" />
<rect x="178.3" y="411.6" width="7.3" height="54.1" rx="1.1" fill="white" opacity="0.2" />
<circle cx="181.9" cy="410.5" r="3.6" fill="white" opacity="0.2" />
<rect x="184.5" y="410.3" width="7.3" height="54.1" rx="1.1" fill="white" opacity="0.2" />
<circle cx="188.2" cy="409.2" r="3.6" fill="white" opacity="0.2" />
<rect x="190.8" y="411.6" width="7.3" height="54.1" rx="1.1" fill="white" opacity="0.2" />
<circle cx="194.4" cy="410.5" r="3.6" fill="white" opacity="0.2" />
<rect x="32.2" y="425.8" width="7.2" height="44.1" rx="1.1" fill="white" opacity="0.3" />
<circle cx="35.8" cy="424.9" r="3.2" fill="white" opacity="0.3" />
<rect x="59.5" y="429.7" width="6.4" height="39.2" rx="1" fill="white" opacity="0.3" />
<circle cx="62.7" cy="428.9" r="2.8" fill="white" opacity="0.3" />
<rect x="292.5" y="429.7" width="6.4" height="39.2" rx="1" fill="white" opacity="0.3" />
<circle cx="295.7" cy="428.9" r="2.8" fill="white" opacity="0.3" />
<rect x="86.4" y="429.7" width="6.4" height="39.2" rx="1" fill="white" opacity="0.3" />
<circle cx="89.6" cy="428.9" r="2.8" fill="white" opacity="0.3" />
<rect x="23.7" y="429.7" width="6.4" height="39.2" rx="1" fill="white" opacity="0.3" />
<circle cx="26.9" cy="428.9" r="2.8" fill="white" opacity="0.3" />
</svg>