<svg xmlns="http://www.w3.org/2000/svg" width="896" height="576" viewBox="0 0 896 576">
<rect width="896" height="576" fill="black" />
<line x1="0" y1="449.28000000000003" x2="896" y2="449.28000000000003" stroke="#222" stroke-width="1" />
<rect x="347.8" y="407.8" width="7.8" height="58.3" rx="1.2" fill="white" opacity="0.2" />
<circle cx="351.7" cy="406.7" r="3.9" fill="white" opacity="0.2" />
<rect x="354.5" y="406.4" width="7.8" height="58.3" rx="1.2" fill="white" opacity="0.2" />
<circle cx="358.4" cy="405.2" r="3.9" fill="white" opacity="0.2" />
<rect x="361.2" y="407.8" width="7.8" height="58.3" rx="1.2" fill="white" opacity="0.2" />
<circle cx="365.1" cy="406.7" r="3.9" fill="white" opacity="0.2" />
<rect x="130.8" y="425.8" width="7.2" height="44.1" rx="1.1" fill="white" opacity="0.3" />
<circle cx="134.4" cy="424.9" r="3.2" fill="white" opacity="0.3" />
<rect x="46.9" y="426.8" width="5" height="37.5" rx="0.8" fill="white" opacity="0.2" />
<circle cx="49.4" cy="426" r="2.5" fill="white" opacity="0.2" />
<rect x="51.2" y="425.8" width="5" height="37.5" rx="0.8" fill="white" opacity="0.2" />
<circle cx="53.8" cy="425.1" r="2.5" fill="white" opacity="0.2" />
<rect x="55.6" y="426.8" width="5" height="37.5" rx="0.8" fill="white" opacity="0.2" />
<circle cx="58.1" cy="426" r="2.5" fill="white" opacity="0.2" />
<rect x="372.7" y="425.8" width="7.2" height="44.1" rx="1.1" fill="white" opacity="0.3" />
<circle cx="376.3" cy="424.9" r="3.2" fill="white" opacity="0.3" />
<rect x="149.1" y="429.7" width="6.4" height="39.2" rx="1" fill="white" opacity="0.3" />
<circle cx="152.3" cy="428.9" r="2.8" fill="white" opacity="0.3" />
<rect x="77.4" y="429.7" width="6.4" height="39.2" rx="1" fill="white" opacity="0.3" />
<circle cx="80.6" cy="428.9" r="2.8" fill="white" opacity="0.3" />
<rect x="176" y="429.7" width="6.4" height="39.2" rx="1" fill="white" opacity="0.3" />
<circle cx="179.2" cy="428.9" r="2.8" fill="white" opacity="0.3" />
<rect x="14.7" y="429.7" width="6.4" height="39.2" rx="1" fill="white" opacity="0.3" />
<circle cx="17.9" cy="428.9" r="2.8" fill="white" opacity="0.3" />
<rect x="104.3" y="429.7" width="6.4" height="39.2" rx="1" fill="white" opacity="0.3" />
<circle cx="107.5" cy="428.9" r="2.8" fill="white" opacity="0.3" />
</svg>